<svg xmlns="http://www.w3.org/2000/svg" width="980" height="780" viewBox="0 0 980 780" font-family="Helvetica, Arial, sans-serif">
<rect width="100%" height="100%" fill="#fffdf8"/>
<text x="24" y="34" font-size="22" font-weight="700" fill="#111827">Compile-time</text>
<text x="24" y="60" font-size="16" font-weight="700" fill="#1f2937">Compile-time: -fsyntax-only</text>
<line x1="180.0" y1="80" x2="180.0" y2="198" stroke="#e5e7eb" stroke-width="1"/>
<text x="180.0" y="74" font-size="11" text-anchor="middle" fill="#6b7280">0.000 s</text>
<line x1="370.0" y1="80" x2="370.0" y2="198" stroke="#e5e7eb" stroke-width="1"/>
<text x="370.0" y="74" font-size="11" text-anchor="middle" fill="#6b7280">0.296 s</text>
<line x1="560.0" y1="80" x2="560.0" y2="198" stroke="#e5e7eb" stroke-width="1"/>
<text x="560.0" y="74" font-size="11" text-anchor="middle" fill="#6b7280">0.592 s</text>
<line x1="750.0" y1="80" x2="750.0" y2="198" stroke="#e5e7eb" stroke-width="1"/>
<text x="750.0" y="74" font-size="11" text-anchor="middle" fill="#6b7280">0.887 s</text>
<line x1="940.0" y1="80" x2="940.0" y2="198" stroke="#e5e7eb" stroke-width="1"/>
<text x="940.0" y="74" font-size="11" text-anchor="middle" fill="#6b7280">1.183 s</text>
<text x="168" y="103" font-size="13" text-anchor="end" fill="#111827">meta_match</text>
<rect x="180" y="90" width="470.6" height="18" fill="#0f766e" rx="4"/>
<line x1="648.6" y1="99.0" x2="652.7" y2="99.0" stroke="#111827" stroke-width="1.5"/>
<line x1="648.6" y1="94.0" x2="648.6" y2="104.0" stroke="#111827" stroke-width="1.5"/>
<line x1="652.7" y1="94.0" x2="652.7" y2="104.0" stroke="#111827" stroke-width="1.5"/>
<text x="948" y="103" font-size="12" fill="#374151">0.733 s ± 0.003 s</text>
<text x="168" y="139" font-size="13" text-anchor="end" fill="#111827">if_match</text>
<rect x="180" y="126" width="89.2" height="18" fill="#2563eb" rx="4"/>
<line x1="267.3" y1="135.0" x2="271.2" y2="135.0" stroke="#111827" stroke-width="1.5"/>
<line x1="267.3" y1="130.0" x2="267.3" y2="140.0" stroke="#111827" stroke-width="1.5"/>
<line x1="271.2" y1="130.0" x2="271.2" y2="140.0" stroke="#111827" stroke-width="1.5"/>
<text x="948" y="139" font-size="12" fill="#374151">0.139 s ± 0.003 s</text>
<text x="168" y="175" font-size="13" text-anchor="end" fill="#111827">glaze</text>
<rect x="180" y="162" width="752.8" height="18" fill="#7c3aed" rx="4"/>
<line x1="925.5" y1="171.0" x2="940.0" y2="171.0" stroke="#111827" stroke-width="1.5"/>
<line x1="925.5" y1="166.0" x2="925.5" y2="176.0" stroke="#111827" stroke-width="1.5"/>
<line x1="940.0" y1="166.0" x2="940.0" y2="176.0" stroke="#111827" stroke-width="1.5"/>
<text x="948" y="175" font-size="12" fill="#374151">1.172 s ± 0.011 s</text>
<text x="24" y="300" font-size="16" font-weight="700" fill="#1f2937">Compile-time: -c -O1</text>
<line x1="180.0" y1="320" x2="180.0" y2="438" stroke="#e5e7eb" stroke-width="1"/>
<text x="180.0" y="314" font-size="11" text-anchor="middle" fill="#6b7280">0.000 s</text>
<line x1="370.0" y1="320" x2="370.0" y2="438" stroke="#e5e7eb" stroke-width="1"/>
<text x="370.0" y="314" font-size="11" text-anchor="middle" fill="#6b7280">0.310 s</text>
<line x1="560.0" y1="320" x2="560.0" y2="438" stroke="#e5e7eb" stroke-width="1"/>
<text x="560.0" y="314" font-size="11" text-anchor="middle" fill="#6b7280">0.621 s</text>
<line x1="750.0" y1="320" x2="750.0" y2="438" stroke="#e5e7eb" stroke-width="1"/>
<text x="750.0" y="314" font-size="11" text-anchor="middle" fill="#6b7280">0.931 s</text>
<line x1="940.0" y1="320" x2="940.0" y2="438" stroke="#e5e7eb" stroke-width="1"/>
<text x="940.0" y="314" font-size="11" text-anchor="middle" fill="#6b7280">1.241 s</text>
<text x="168" y="343" font-size="13" text-anchor="end" fill="#111827">meta_match</text>
<rect x="180" y="330" width="553.3" height="18" fill="#0f766e" rx="4"/>
<line x1="730.0" y1="339.0" x2="736.6" y2="339.0" stroke="#111827" stroke-width="1.5"/>
<line x1="730.0" y1="334.0" x2="730.0" y2="344.0" stroke="#111827" stroke-width="1.5"/>
<line x1="736.6" y1="334.0" x2="736.6" y2="344.0" stroke="#111827" stroke-width="1.5"/>
<text x="948" y="343" font-size="12" fill="#374151">0.904 s ± 0.005 s</text>
<text x="168" y="379" font-size="13" text-anchor="end" fill="#111827">if_match</text>
<rect x="180" y="366" width="102.9" height="18" fill="#2563eb" rx="4"/>
<line x1="281.8" y1="375.0" x2="284.0" y2="375.0" stroke="#111827" stroke-width="1.5"/>
<line x1="281.8" y1="370.0" x2="281.8" y2="380.0" stroke="#111827" stroke-width="1.5"/>
<line x1="284.0" y1="370.0" x2="284.0" y2="380.0" stroke="#111827" stroke-width="1.5"/>
<text x="948" y="379" font-size="12" fill="#374151">0.168 s ± 0.002 s</text>
<text x="168" y="415" font-size="13" text-anchor="end" fill="#111827">glaze</text>
<rect x="180" y="402" width="756.6" height="18" fill="#7c3aed" rx="4"/>
<line x1="933.3" y1="411.0" x2="940.0" y2="411.0" stroke="#111827" stroke-width="1.5"/>
<line x1="933.3" y1="406.0" x2="933.3" y2="416.0" stroke="#111827" stroke-width="1.5"/>
<line x1="940.0" y1="406.0" x2="940.0" y2="416.0" stroke="#111827" stroke-width="1.5"/>
<text x="948" y="415" font-size="12" fill="#374151">1.236 s ± 0.005 s</text>
<text x="24" y="540" font-size="16" font-weight="700" fill="#1f2937">Compile-time: -c -O3</text>
<line x1="180.0" y1="560" x2="180.0" y2="678" stroke="#e5e7eb" stroke-width="1"/>
<text x="180.0" y="554" font-size="11" text-anchor="middle" fill="#6b7280">0.000 s</text>
<line x1="370.0" y1="560" x2="370.0" y2="678" stroke="#e5e7eb" stroke-width="1"/>
<text x="370.0" y="554" font-size="11" text-anchor="middle" fill="#6b7280">0.328 s</text>
<line x1="560.0" y1="560" x2="560.0" y2="678" stroke="#e5e7eb" stroke-width="1"/>
<text x="560.0" y="554" font-size="11" text-anchor="middle" fill="#6b7280">0.657 s</text>
<line x1="750.0" y1="560" x2="750.0" y2="678" stroke="#e5e7eb" stroke-width="1"/>
<text x="750.0" y="554" font-size="11" text-anchor="middle" fill="#6b7280">0.985 s</text>
<line x1="940.0" y1="560" x2="940.0" y2="678" stroke="#e5e7eb" stroke-width="1"/>
<text x="940.0" y="554" font-size="11" text-anchor="middle" fill="#6b7280">1.314 s</text>
<text x="168" y="583" font-size="13" text-anchor="end" fill="#111827">meta_match</text>
<rect x="180" y="570" width="571.8" height="18" fill="#0f766e" rx="4"/>
<line x1="737.1" y1="579.0" x2="766.4" y2="579.0" stroke="#111827" stroke-width="1.5"/>
<line x1="737.1" y1="574.0" x2="737.1" y2="584.0" stroke="#111827" stroke-width="1.5"/>
<line x1="766.4" y1="574.0" x2="766.4" y2="584.0" stroke="#111827" stroke-width="1.5"/>
<text x="948" y="583" font-size="12" fill="#374151">0.988 s ± 0.025 s</text>
<text x="168" y="619" font-size="13" text-anchor="end" fill="#111827">if_match</text>
<rect x="180" y="606" width="98.1" height="18" fill="#2563eb" rx="4"/>
<line x1="277.1" y1="615.0" x2="279.1" y2="615.0" stroke="#111827" stroke-width="1.5"/>
<line x1="277.1" y1="610.0" x2="277.1" y2="620.0" stroke="#111827" stroke-width="1.5"/>
<line x1="279.1" y1="610.0" x2="279.1" y2="620.0" stroke="#111827" stroke-width="1.5"/>
<text x="948" y="619" font-size="12" fill="#374151">0.170 s ± 0.002 s</text>
<text x="168" y="655" font-size="13" text-anchor="end" fill="#111827">glaze</text>
<rect x="180" y="642" width="740.4" height="18" fill="#7c3aed" rx="4"/>
<line x1="900.9" y1="651.0" x2="940.0" y2="651.0" stroke="#111827" stroke-width="1.5"/>
<line x1="900.9" y1="646.0" x2="900.9" y2="656.0" stroke="#111827" stroke-width="1.5"/>
<line x1="940.0" y1="646.0" x2="940.0" y2="656.0" stroke="#111827" stroke-width="1.5"/>
<text x="948" y="655" font-size="12" fill="#374151">1.280 s ± 0.034 s</text>
</svg>
