<svg xmlns="http://www.w3.org/2000/svg" width="980" height="780" viewBox="0 0 980 780" font-family="Helvetica, Arial, sans-serif">
<rect width="100%" height="100%" fill="#fffdf8"/>
<text x="24" y="34" font-size="22" font-weight="700" fill="#111827">Compile-time</text>
<text x="24" y="60" font-size="16" font-weight="700" fill="#1f2937">Compile-time: -fsyntax-only</text>
<line x1="180.0" y1="80" x2="180.0" y2="198" stroke="#e5e7eb" stroke-width="1"/>
<text x="180.0" y="74" font-size="11" text-anchor="middle" fill="#6b7280">0.000 s</text>
<line x1="370.0" y1="80" x2="370.0" y2="198" stroke="#e5e7eb" stroke-width="1"/>
<text x="370.0" y="74" font-size="11" text-anchor="middle" fill="#6b7280">0.453 s</text>
<line x1="560.0" y1="80" x2="560.0" y2="198" stroke="#e5e7eb" stroke-width="1"/>
<text x="560.0" y="74" font-size="11" text-anchor="middle" fill="#6b7280">0.907 s</text>
<line x1="750.0" y1="80" x2="750.0" y2="198" stroke="#e5e7eb" stroke-width="1"/>
<text x="750.0" y="74" font-size="11" text-anchor="middle" fill="#6b7280">1.360 s</text>
<line x1="940.0" y1="80" x2="940.0" y2="198" stroke="#e5e7eb" stroke-width="1"/>
<text x="940.0" y="74" font-size="11" text-anchor="middle" fill="#6b7280">1.813 s</text>
<text x="168" y="103" font-size="13" text-anchor="end" fill="#111827">meta_match</text>
<rect x="180" y="90" width="461.7" height="18" fill="#0f766e" rx="4"/>
<line x1="637.8" y1="99.0" x2="645.6" y2="99.0" stroke="#111827" stroke-width="1.5"/>
<line x1="637.8" y1="94.0" x2="637.8" y2="104.0" stroke="#111827" stroke-width="1.5"/>
<line x1="645.6" y1="94.0" x2="645.6" y2="104.0" stroke="#111827" stroke-width="1.5"/>
<text x="948" y="103" font-size="12" fill="#374151">1.101 s ± 0.009 s</text>
<text x="168" y="139" font-size="13" text-anchor="end" fill="#111827">if_match</text>
<rect x="180" y="126" width="87.2" height="18" fill="#2563eb" rx="4"/>
<line x1="266.3" y1="135.0" x2="268.1" y2="135.0" stroke="#111827" stroke-width="1.5"/>
<line x1="266.3" y1="130.0" x2="266.3" y2="140.0" stroke="#111827" stroke-width="1.5"/>
<line x1="268.1" y1="130.0" x2="268.1" y2="140.0" stroke="#111827" stroke-width="1.5"/>
<text x="948" y="139" font-size="12" fill="#374151">0.208 s ± 0.002 s</text>
<text x="168" y="175" font-size="13" text-anchor="end" fill="#111827">glaze</text>
<rect x="180" y="162" width="755.3" height="18" fill="#7c3aed" rx="4"/>
<line x1="930.6" y1="171.0" x2="940.0" y2="171.0" stroke="#111827" stroke-width="1.5"/>
<line x1="930.6" y1="166.0" x2="930.6" y2="176.0" stroke="#111827" stroke-width="1.5"/>
<line x1="940.0" y1="166.0" x2="940.0" y2="176.0" stroke="#111827" stroke-width="1.5"/>
<text x="948" y="175" font-size="12" fill="#374151">1.802 s ± 0.011 s</text>
<text x="24" y="300" font-size="16" font-weight="700" fill="#1f2937">Compile-time: -c -O1</text>
<line x1="180.0" y1="320" x2="180.0" y2="438" stroke="#e5e7eb" stroke-width="1"/>
<text x="180.0" y="314" font-size="11" text-anchor="middle" fill="#6b7280">0.000 s</text>
<line x1="370.0" y1="320" x2="370.0" y2="438" stroke="#e5e7eb" stroke-width="1"/>
<text x="370.0" y="314" font-size="11" text-anchor="middle" fill="#6b7280">0.498 s</text>
<line x1="560.0" y1="320" x2="560.0" y2="438" stroke="#e5e7eb" stroke-width="1"/>
<text x="560.0" y="314" font-size="11" text-anchor="middle" fill="#6b7280">0.996 s</text>
<line x1="750.0" y1="320" x2="750.0" y2="438" stroke="#e5e7eb" stroke-width="1"/>
<text x="750.0" y="314" font-size="11" text-anchor="middle" fill="#6b7280">1.494 s</text>
<line x1="940.0" y1="320" x2="940.0" y2="438" stroke="#e5e7eb" stroke-width="1"/>
<text x="940.0" y="314" font-size="11" text-anchor="middle" fill="#6b7280">1.992 s</text>
<text x="168" y="343" font-size="13" text-anchor="end" fill="#111827">meta_match</text>
<rect x="180" y="330" width="523.5" height="18" fill="#0f766e" rx="4"/>
<line x1="693.9" y1="339.0" x2="713.1" y2="339.0" stroke="#111827" stroke-width="1.5"/>
<line x1="693.9" y1="334.0" x2="693.9" y2="344.0" stroke="#111827" stroke-width="1.5"/>
<line x1="713.1" y1="334.0" x2="713.1" y2="344.0" stroke="#111827" stroke-width="1.5"/>
<text x="948" y="343" font-size="12" fill="#374151">1.372 s ± 0.025 s</text>
<text x="168" y="379" font-size="13" text-anchor="end" fill="#111827">if_match</text>
<rect x="180" y="366" width="95.6" height="18" fill="#2563eb" rx="4"/>
<line x1="272.5" y1="375.0" x2="278.6" y2="375.0" stroke="#111827" stroke-width="1.5"/>
<line x1="272.5" y1="370.0" x2="272.5" y2="380.0" stroke="#111827" stroke-width="1.5"/>
<line x1="278.6" y1="370.0" x2="278.6" y2="380.0" stroke="#111827" stroke-width="1.5"/>
<text x="948" y="379" font-size="12" fill="#374151">0.251 s ± 0.008 s</text>
<text x="168" y="415" font-size="13" text-anchor="end" fill="#111827">glaze</text>
<rect x="180" y="402" width="748.5" height="18" fill="#7c3aed" rx="4"/>
<line x1="917.0" y1="411.0" x2="940.0" y2="411.0" stroke="#111827" stroke-width="1.5"/>
<line x1="917.0" y1="406.0" x2="917.0" y2="416.0" stroke="#111827" stroke-width="1.5"/>
<line x1="940.0" y1="406.0" x2="940.0" y2="416.0" stroke="#111827" stroke-width="1.5"/>
<text x="948" y="415" font-size="12" fill="#374151">1.962 s ± 0.030 s</text>
<text x="24" y="540" font-size="16" font-weight="700" fill="#1f2937">Compile-time: -c -O3</text>
<line x1="180.0" y1="560" x2="180.0" y2="678" stroke="#e5e7eb" stroke-width="1"/>
<text x="180.0" y="554" font-size="11" text-anchor="middle" fill="#6b7280">0.000 s</text>
<line x1="370.0" y1="560" x2="370.0" y2="678" stroke="#e5e7eb" stroke-width="1"/>
<text x="370.0" y="554" font-size="11" text-anchor="middle" fill="#6b7280">0.534 s</text>
<line x1="560.0" y1="560" x2="560.0" y2="678" stroke="#e5e7eb" stroke-width="1"/>
<text x="560.0" y="554" font-size="11" text-anchor="middle" fill="#6b7280">1.067 s</text>
<line x1="750.0" y1="560" x2="750.0" y2="678" stroke="#e5e7eb" stroke-width="1"/>
<text x="750.0" y="554" font-size="11" text-anchor="middle" fill="#6b7280">1.601 s</text>
<line x1="940.0" y1="560" x2="940.0" y2="678" stroke="#e5e7eb" stroke-width="1"/>
<text x="940.0" y="554" font-size="11" text-anchor="middle" fill="#6b7280">2.134 s</text>
<text x="168" y="583" font-size="13" text-anchor="end" fill="#111827">meta_match</text>
<rect x="180" y="570" width="510.8" height="18" fill="#0f766e" rx="4"/>
<line x1="685.4" y1="579.0" x2="696.2" y2="579.0" stroke="#111827" stroke-width="1.5"/>
<line x1="685.4" y1="574.0" x2="685.4" y2="584.0" stroke="#111827" stroke-width="1.5"/>
<line x1="696.2" y1="574.0" x2="696.2" y2="584.0" stroke="#111827" stroke-width="1.5"/>
<text x="948" y="583" font-size="12" fill="#374151">1.434 s ± 0.015 s</text>
<text x="168" y="619" font-size="13" text-anchor="end" fill="#111827">if_match</text>
<rect x="180" y="606" width="91.1" height="18" fill="#2563eb" rx="4"/>
<line x1="270.3" y1="615.0" x2="271.9" y2="615.0" stroke="#111827" stroke-width="1.5"/>
<line x1="270.3" y1="610.0" x2="270.3" y2="620.0" stroke="#111827" stroke-width="1.5"/>
<line x1="271.9" y1="610.0" x2="271.9" y2="620.0" stroke="#111827" stroke-width="1.5"/>
<text x="948" y="619" font-size="12" fill="#374151">0.256 s ± 0.002 s</text>
<text x="168" y="655" font-size="13" text-anchor="end" fill="#111827">glaze</text>
<rect x="180" y="642" width="704.6" height="18" fill="#7c3aed" rx="4"/>
<line x1="829.2" y1="651.0" x2="940.0" y2="651.0" stroke="#111827" stroke-width="1.5"/>
<line x1="829.2" y1="646.0" x2="829.2" y2="656.0" stroke="#111827" stroke-width="1.5"/>
<line x1="940.0" y1="646.0" x2="940.0" y2="656.0" stroke="#111827" stroke-width="1.5"/>
<text x="948" y="655" font-size="12" fill="#374151">1.979 s ± 0.156 s</text>
</svg>
