<svg xmlns="http://www.w3.org/2000/svg" width="1180" height="1236" viewBox="0 0 1180 1236" font-family="Helvetica, Arial, sans-serif">
<rect width="100%" height="100%" fill="#fffdf8"/>
<text x="24" y="34" font-size="22" font-weight="700" fill="#111827">Runtime benchmark (CPU time)</text>
<text x="24" y="60" font-size="16" font-weight="700" fill="#1f2937">hits_only_randomized</text>
<line x1="220.0" y1="92" x2="1120.0" y2="92" stroke="#e5e7eb" stroke-width="1"/>
<line x1="220.0" y1="92" x2="220.0" y2="398" stroke="#cbd5e1" stroke-width="1.5" stroke-dasharray="4 4"/>
<text x="220.0" y="86" font-size="11" text-anchor="middle" fill="#475569">0 ns</text>
<line x1="400.0" y1="92" x2="400.0" y2="398" stroke="#cbd5e1" stroke-width="1.5" stroke-dasharray="4 4"/>
<text x="400.0" y="86" font-size="11" text-anchor="middle" fill="#475569">3 ns</text>
<line x1="580.0" y1="92" x2="580.0" y2="398" stroke="#cbd5e1" stroke-width="1.5" stroke-dasharray="4 4"/>
<text x="580.0" y="86" font-size="11" text-anchor="middle" fill="#475569">6 ns</text>
<line x1="760.0" y1="92" x2="760.0" y2="398" stroke="#cbd5e1" stroke-width="1.5" stroke-dasharray="4 4"/>
<text x="760.0" y="86" font-size="11" text-anchor="middle" fill="#475569">9 ns</text>
<line x1="940.0" y1="92" x2="940.0" y2="398" stroke="#cbd5e1" stroke-width="1.5" stroke-dasharray="4 4"/>
<text x="940.0" y="86" font-size="11" text-anchor="middle" fill="#475569">12 ns</text>
<line x1="1120.0" y1="92" x2="1120.0" y2="398" stroke="#cbd5e1" stroke-width="1.5" stroke-dasharray="4 4"/>
<text x="1120.0" y="86" font-size="11" text-anchor="middle" fill="#475569">15 ns</text>
<text x="208" y="122" font-size="12" text-anchor="end" fill="#111827">first_byte_distinct_10</text>
<rect x="220" y="104" width="132.2" height="6" fill="#0f766e" rx="3"/>
<rect x="220" y="112" width="164.6" height="6" fill="#2563eb" rx="3"/>
<rect x="220" y="120" width="152.0" height="6" fill="#7c3aed" rx="3"/>
<text x="208" y="164" font-size="12" text-anchor="end" fill="#111827">hash_prefix_4byte_255</text>
<rect x="220" y="146" width="339.2" height="6" fill="#0f766e" rx="3"/>
<rect x="220" y="154" width="900.0" height="6" fill="#2563eb" rx="3"/>
<text x="1128.0" y="159" font-size="11" fill="#374151">29.52 ns</text>
<rect x="220" y="162" width="195.6" height="6" fill="#7c3aed" rx="3"/>
<text x="208" y="206" font-size="12" text-anchor="end" fill="#111827">http_headers_50</text>
<rect x="220" y="188" width="263.9" height="6" fill="#0f766e" rx="3"/>
<rect x="220" y="196" width="303.3" height="6" fill="#2563eb" rx="3"/>
<rect x="220" y="204" width="423.7" height="6" fill="#7c3aed" rx="3"/>
<text x="208" y="248" font-size="12" text-anchor="end" fill="#111827">http_methods_10</text>
<rect x="220" y="230" width="178.6" height="6" fill="#0f766e" rx="3"/>
<rect x="220" y="238" width="158.2" height="6" fill="#2563eb" rx="3"/>
<rect x="220" y="246" width="462.0" height="6" fill="#7c3aed" rx="3"/>
<text x="208" y="290" font-size="12" text-anchor="end" fill="#111827">json_fields_10</text>
<rect x="220" y="272" width="133.3" height="6" fill="#0f766e" rx="3"/>
<rect x="220" y="280" width="231.6" height="6" fill="#2563eb" rx="3"/>
<rect x="220" y="288" width="467.6" height="6" fill="#7c3aed" rx="3"/>
<text x="208" y="332" font-size="12" text-anchor="end" fill="#111827">prefix_family_10</text>
<rect x="220" y="314" width="198.2" height="6" fill="#0f766e" rx="3"/>
<rect x="220" y="322" width="164.1" height="6" fill="#2563eb" rx="3"/>
<rect x="220" y="330" width="653.5" height="6" fill="#7c3aed" rx="3"/>
<text x="208" y="374" font-size="12" text-anchor="end" fill="#111827">tail_distinct_10</text>
<rect x="220" y="356" width="313.0" height="6" fill="#0f766e" rx="3"/>
<rect x="220" y="364" width="184.3" height="6" fill="#2563eb" rx="3"/>
<rect x="220" y="372" width="153.5" height="6" fill="#7c3aed" rx="3"/>
<rect x="24" y="422" width="18" height="10" fill="#0f766e" rx="2"/>
<text x="50" y="431" font-size="12" fill="#374151">meta_match</text>
<rect x="194" y="422" width="18" height="10" fill="#2563eb" rx="2"/>
<text x="220" y="431" font-size="12" fill="#374151">if_match</text>
<rect x="364" y="422" width="18" height="10" fill="#7c3aed" rx="2"/>
<text x="390" y="431" font-size="12" fill="#374151">glaze</text>
<text x="24" y="452" font-size="16" font-weight="700" fill="#1f2937">hit_miss_randomized</text>
<line x1="220.0" y1="484" x2="1120.0" y2="484" stroke="#e5e7eb" stroke-width="1"/>
<line x1="220.0" y1="484" x2="220.0" y2="790" stroke="#cbd5e1" stroke-width="1.5" stroke-dasharray="4 4"/>
<text x="220.0" y="478" font-size="11" text-anchor="middle" fill="#475569">0 ns</text>
<line x1="400.0" y1="484" x2="400.0" y2="790" stroke="#cbd5e1" stroke-width="1.5" stroke-dasharray="4 4"/>
<text x="400.0" y="478" font-size="11" text-anchor="middle" fill="#475569">3 ns</text>
<line x1="580.0" y1="484" x2="580.0" y2="790" stroke="#cbd5e1" stroke-width="1.5" stroke-dasharray="4 4"/>
<text x="580.0" y="478" font-size="11" text-anchor="middle" fill="#475569">6 ns</text>
<line x1="760.0" y1="484" x2="760.0" y2="790" stroke="#cbd5e1" stroke-width="1.5" stroke-dasharray="4 4"/>
<text x="760.0" y="478" font-size="11" text-anchor="middle" fill="#475569">9 ns</text>
<line x1="940.0" y1="484" x2="940.0" y2="790" stroke="#cbd5e1" stroke-width="1.5" stroke-dasharray="4 4"/>
<text x="940.0" y="478" font-size="11" text-anchor="middle" fill="#475569">12 ns</text>
<line x1="1120.0" y1="484" x2="1120.0" y2="790" stroke="#cbd5e1" stroke-width="1.5" stroke-dasharray="4 4"/>
<text x="1120.0" y="478" font-size="11" text-anchor="middle" fill="#475569">15 ns</text>
<text x="208" y="514" font-size="12" text-anchor="end" fill="#111827">first_byte_distinct_10</text>
<rect x="220" y="496" width="135.0" height="6" fill="#0f766e" rx="3"/>
<rect x="220" y="504" width="165.6" height="6" fill="#2563eb" rx="3"/>
<rect x="220" y="512" width="156.2" height="6" fill="#7c3aed" rx="3"/>
<text x="208" y="556" font-size="12" text-anchor="end" fill="#111827">hash_prefix_4byte_255</text>
<rect x="220" y="538" width="330.7" height="6" fill="#0f766e" rx="3"/>
<rect x="220" y="546" width="900.0" height="6" fill="#2563eb" rx="3"/>
<text x="1128.0" y="551" font-size="11" fill="#374151">29.97 ns</text>
<rect x="220" y="554" width="184.6" height="6" fill="#7c3aed" rx="3"/>
<text x="208" y="598" font-size="12" text-anchor="end" fill="#111827">http_headers_50</text>
<rect x="220" y="580" width="272.6" height="6" fill="#0f766e" rx="3"/>
<rect x="220" y="588" width="313.6" height="6" fill="#2563eb" rx="3"/>
<rect x="220" y="596" width="427.5" height="6" fill="#7c3aed" rx="3"/>
<text x="208" y="640" font-size="12" text-anchor="end" fill="#111827">http_methods_10</text>
<rect x="220" y="622" width="178.6" height="6" fill="#0f766e" rx="3"/>
<rect x="220" y="630" width="168.2" height="6" fill="#2563eb" rx="3"/>
<rect x="220" y="638" width="452.1" height="6" fill="#7c3aed" rx="3"/>
<text x="208" y="682" font-size="12" text-anchor="end" fill="#111827">json_fields_10</text>
<rect x="220" y="664" width="140.1" height="6" fill="#0f766e" rx="3"/>
<rect x="220" y="672" width="230.6" height="6" fill="#2563eb" rx="3"/>
<rect x="220" y="680" width="456.6" height="6" fill="#7c3aed" rx="3"/>
<text x="208" y="724" font-size="12" text-anchor="end" fill="#111827">prefix_family_10</text>
<rect x="220" y="706" width="202.8" height="6" fill="#0f766e" rx="3"/>
<rect x="220" y="714" width="163.2" height="6" fill="#2563eb" rx="3"/>
<rect x="220" y="722" width="628.0" height="6" fill="#7c3aed" rx="3"/>
<text x="208" y="766" font-size="12" text-anchor="end" fill="#111827">tail_distinct_10</text>
<rect x="220" y="748" width="307.1" height="6" fill="#0f766e" rx="3"/>
<rect x="220" y="756" width="191.4" height="6" fill="#2563eb" rx="3"/>
<rect x="220" y="764" width="157.3" height="6" fill="#7c3aed" rx="3"/>
<rect x="24" y="814" width="18" height="10" fill="#0f766e" rx="2"/>
<text x="50" y="823" font-size="12" fill="#374151">meta_match</text>
<rect x="194" y="814" width="18" height="10" fill="#2563eb" rx="2"/>
<text x="220" y="823" font-size="12" fill="#374151">if_match</text>
<rect x="364" y="814" width="18" height="10" fill="#7c3aed" rx="2"/>
<text x="390" y="823" font-size="12" fill="#374151">glaze</text>
<text x="24" y="844" font-size="16" font-weight="700" fill="#1f2937">miss_only</text>
<line x1="220.0" y1="876" x2="1120.0" y2="876" stroke="#e5e7eb" stroke-width="1"/>
<line x1="220.0" y1="876" x2="220.0" y2="1182" stroke="#cbd5e1" stroke-width="1.5" stroke-dasharray="4 4"/>
<text x="220.0" y="870" font-size="11" text-anchor="middle" fill="#475569">0 ns</text>
<line x1="400.0" y1="876" x2="400.0" y2="1182" stroke="#cbd5e1" stroke-width="1.5" stroke-dasharray="4 4"/>
<text x="400.0" y="870" font-size="11" text-anchor="middle" fill="#475569">3 ns</text>
<line x1="580.0" y1="876" x2="580.0" y2="1182" stroke="#cbd5e1" stroke-width="1.5" stroke-dasharray="4 4"/>
<text x="580.0" y="870" font-size="11" text-anchor="middle" fill="#475569">6 ns</text>
<line x1="760.0" y1="876" x2="760.0" y2="1182" stroke="#cbd5e1" stroke-width="1.5" stroke-dasharray="4 4"/>
<text x="760.0" y="870" font-size="11" text-anchor="middle" fill="#475569">9 ns</text>
<line x1="940.0" y1="876" x2="940.0" y2="1182" stroke="#cbd5e1" stroke-width="1.5" stroke-dasharray="4 4"/>
<text x="940.0" y="870" font-size="11" text-anchor="middle" fill="#475569">12 ns</text>
<line x1="1120.0" y1="876" x2="1120.0" y2="1182" stroke="#cbd5e1" stroke-width="1.5" stroke-dasharray="4 4"/>
<text x="1120.0" y="870" font-size="11" text-anchor="middle" fill="#475569">15 ns</text>
<text x="208" y="906" font-size="12" text-anchor="end" fill="#111827">first_byte_distinct_10</text>
<rect x="220" y="888" width="106.7" height="6" fill="#0f766e" rx="3"/>
<rect x="220" y="896" width="121.4" height="6" fill="#2563eb" rx="3"/>
<rect x="220" y="904" width="57.7" height="6" fill="#7c3aed" rx="3"/>
<text x="208" y="948" font-size="12" text-anchor="end" fill="#111827">hash_prefix_4byte_255</text>
<rect x="220" y="930" width="201.8" height="6" fill="#0f766e" rx="3"/>
<rect x="220" y="938" width="900.0" height="6" fill="#2563eb" rx="3"/>
<text x="1128.0" y="943" font-size="11" fill="#374151">55.03 ns</text>
<rect x="220" y="946" width="58.9" height="6" fill="#7c3aed" rx="3"/>
<text x="208" y="990" font-size="12" text-anchor="end" fill="#111827">http_headers_50</text>
<rect x="220" y="972" width="209.2" height="6" fill="#0f766e" rx="3"/>
<rect x="220" y="980" width="220.0" height="6" fill="#2563eb" rx="3"/>
<rect x="220" y="988" width="121.0" height="6" fill="#7c3aed" rx="3"/>
<text x="208" y="1032" font-size="12" text-anchor="end" fill="#111827">http_methods_10</text>
<rect x="220" y="1014" width="109.3" height="6" fill="#0f766e" rx="3"/>
<rect x="220" y="1022" width="102.6" height="6" fill="#2563eb" rx="3"/>
<rect x="220" y="1030" width="149.9" height="6" fill="#7c3aed" rx="3"/>
<text x="208" y="1074" font-size="12" text-anchor="end" fill="#111827">json_fields_10</text>
<rect x="220" y="1056" width="108.7" height="6" fill="#0f766e" rx="3"/>
<rect x="220" y="1064" width="110.0" height="6" fill="#2563eb" rx="3"/>
<rect x="220" y="1072" width="92.3" height="6" fill="#7c3aed" rx="3"/>
<text x="208" y="1116" font-size="12" text-anchor="end" fill="#111827">prefix_family_10</text>
<rect x="220" y="1098" width="141.3" height="6" fill="#0f766e" rx="3"/>
<rect x="220" y="1106" width="63.4" height="6" fill="#2563eb" rx="3"/>
<rect x="220" y="1114" width="174.7" height="6" fill="#7c3aed" rx="3"/>
<text x="208" y="1158" font-size="12" text-anchor="end" fill="#111827">tail_distinct_10</text>
<rect x="220" y="1140" width="221.9" height="6" fill="#0f766e" rx="3"/>
<rect x="220" y="1148" width="130.1" height="6" fill="#2563eb" rx="3"/>
<rect x="220" y="1156" width="76.5" height="6" fill="#7c3aed" rx="3"/>
<rect x="24" y="1206" width="18" height="10" fill="#0f766e" rx="2"/>
<text x="50" y="1215" font-size="12" fill="#374151">meta_match</text>
<rect x="194" y="1206" width="18" height="10" fill="#2563eb" rx="2"/>
<text x="220" y="1215" font-size="12" fill="#374151">if_match</text>
<rect x="364" y="1206" width="18" height="10" fill="#7c3aed" rx="2"/>
<text x="390" y="1215" font-size="12" fill="#374151">glaze</text>
</svg>
