<svg xmlns="http://www.w3.org/2000/svg" width="1180" height="1080" viewBox="0 0 1180 1080" font-family="Helvetica, Arial, sans-serif">
<rect width="100%" height="100%" fill="#fffdf8"/>
<text x="24" y="34" font-size="22" font-weight="700" fill="#111827">Runtime benchmark (CPU time)</text>
<text x="24" y="60" font-size="16" font-weight="700" fill="#1f2937">hits_only_randomized</text>
<line x1="220.0" y1="80" x2="220.0" y2="384" stroke="#e5e7eb" stroke-width="1"/>
<text x="220.0" y="74" font-size="11" text-anchor="middle" fill="#6b7280">0.00 ns</text>
<line x1="400.0" y1="80" x2="400.0" y2="384" stroke="#e5e7eb" stroke-width="1"/>
<text x="400.0" y="74" font-size="11" text-anchor="middle" fill="#6b7280">4.32 ns</text>
<line x1="580.0" y1="80" x2="580.0" y2="384" stroke="#e5e7eb" stroke-width="1"/>
<text x="580.0" y="74" font-size="11" text-anchor="middle" fill="#6b7280">8.63 ns</text>
<line x1="760.0" y1="80" x2="760.0" y2="384" stroke="#e5e7eb" stroke-width="1"/>
<text x="760.0" y="74" font-size="11" text-anchor="middle" fill="#6b7280">12.95 ns</text>
<line x1="940.0" y1="80" x2="940.0" y2="384" stroke="#e5e7eb" stroke-width="1"/>
<text x="940.0" y="74" font-size="11" text-anchor="middle" fill="#6b7280">17.26 ns</text>
<line x1="1120.0" y1="80" x2="1120.0" y2="384" stroke="#e5e7eb" stroke-width="1"/>
<text x="1120.0" y="74" font-size="11" text-anchor="middle" fill="#6b7280">21.58 ns</text>
<text x="208" y="108" font-size="12" text-anchor="end" fill="#111827">first_byte_distinct_10</text>
<rect x="220" y="90" width="65.7" height="6" fill="#0f766e" rx="3"/>
<rect x="220" y="98" width="86.2" height="6" fill="#2563eb" rx="3"/>
<rect x="220" y="106" width="76.8" height="6" fill="#7c3aed" rx="3"/>
<text x="208" y="150" font-size="12" text-anchor="end" fill="#111827">hash_prefix_4byte_255</text>
<rect x="220" y="132" width="222.3" height="6" fill="#0f766e" rx="3"/>
<rect x="220" y="140" width="900.0" height="6" fill="#2563eb" rx="3"/>
<rect x="220" y="148" width="117.0" height="6" fill="#7c3aed" rx="3"/>
<text x="208" y="192" font-size="12" text-anchor="end" fill="#111827">http_headers_50</text>
<rect x="220" y="174" width="136.6" height="6" fill="#0f766e" rx="3"/>
<rect x="220" y="182" width="105.0" height="6" fill="#2563eb" rx="3"/>
<rect x="220" y="190" width="226.6" height="6" fill="#7c3aed" rx="3"/>
<text x="208" y="234" font-size="12" text-anchor="end" fill="#111827">http_methods_10</text>
<rect x="220" y="216" width="88.9" height="6" fill="#0f766e" rx="3"/>
<rect x="220" y="224" width="84.6" height="6" fill="#2563eb" rx="3"/>
<rect x="220" y="232" width="233.3" height="6" fill="#7c3aed" rx="3"/>
<text x="208" y="276" font-size="12" text-anchor="end" fill="#111827">json_fields_10</text>
<rect x="220" y="258" width="67.9" height="6" fill="#0f766e" rx="3"/>
<rect x="220" y="266" width="80.2" height="6" fill="#2563eb" rx="3"/>
<rect x="220" y="274" width="245.8" height="6" fill="#7c3aed" rx="3"/>
<text x="208" y="318" font-size="12" text-anchor="end" fill="#111827">prefix_family_10</text>
<rect x="220" y="300" width="98.1" height="6" fill="#0f766e" rx="3"/>
<rect x="220" y="308" width="83.8" height="6" fill="#2563eb" rx="3"/>
<rect x="220" y="316" width="356.0" height="6" fill="#7c3aed" rx="3"/>
<text x="208" y="360" font-size="12" text-anchor="end" fill="#111827">tail_distinct_10</text>
<rect x="220" y="342" width="158.9" height="6" fill="#0f766e" rx="3"/>
<rect x="220" y="350" width="85.2" height="6" fill="#2563eb" rx="3"/>
<rect x="220" y="358" width="75.6" height="6" fill="#7c3aed" rx="3"/>
<rect x="24" y="394" width="18" height="10" fill="#0f766e" rx="2"/>
<text x="50" y="403" font-size="12" fill="#374151">meta_match</text>
<rect x="194" y="394" width="18" height="10" fill="#2563eb" rx="2"/>
<text x="220" y="403" font-size="12" fill="#374151">if_match</text>
<rect x="364" y="394" width="18" height="10" fill="#7c3aed" rx="2"/>
<text x="390" y="403" font-size="12" fill="#374151">glaze</text>
<text x="24" y="400" font-size="16" font-weight="700" fill="#1f2937">hit_miss_randomized</text>
<line x1="220.0" y1="420" x2="220.0" y2="724" stroke="#e5e7eb" stroke-width="1"/>
<text x="220.0" y="414" font-size="11" text-anchor="middle" fill="#6b7280">0.00 ns</text>
<line x1="400.0" y1="420" x2="400.0" y2="724" stroke="#e5e7eb" stroke-width="1"/>
<text x="400.0" y="414" font-size="11" text-anchor="middle" fill="#6b7280">4.35 ns</text>
<line x1="580.0" y1="420" x2="580.0" y2="724" stroke="#e5e7eb" stroke-width="1"/>
<text x="580.0" y="414" font-size="11" text-anchor="middle" fill="#6b7280">8.71 ns</text>
<line x1="760.0" y1="420" x2="760.0" y2="724" stroke="#e5e7eb" stroke-width="1"/>
<text x="760.0" y="414" font-size="11" text-anchor="middle" fill="#6b7280">13.06 ns</text>
<line x1="940.0" y1="420" x2="940.0" y2="724" stroke="#e5e7eb" stroke-width="1"/>
<text x="940.0" y="414" font-size="11" text-anchor="middle" fill="#6b7280">17.41 ns</text>
<line x1="1120.0" y1="420" x2="1120.0" y2="724" stroke="#e5e7eb" stroke-width="1"/>
<text x="1120.0" y="414" font-size="11" text-anchor="middle" fill="#6b7280">21.77 ns</text>
<text x="208" y="448" font-size="12" text-anchor="end" fill="#111827">first_byte_distinct_10</text>
<rect x="220" y="430" width="66.5" height="6" fill="#0f766e" rx="3"/>
<rect x="220" y="438" width="83.3" height="6" fill="#2563eb" rx="3"/>
<rect x="220" y="446" width="77.5" height="6" fill="#7c3aed" rx="3"/>
<text x="208" y="490" font-size="12" text-anchor="end" fill="#111827">hash_prefix_4byte_255</text>
<rect x="220" y="472" width="171.3" height="6" fill="#0f766e" rx="3"/>
<rect x="220" y="480" width="900.0" height="6" fill="#2563eb" rx="3"/>
<rect x="220" y="488" width="80.8" height="6" fill="#7c3aed" rx="3"/>
<text x="208" y="532" font-size="12" text-anchor="end" fill="#111827">http_headers_50</text>
<rect x="220" y="514" width="135.5" height="6" fill="#0f766e" rx="3"/>
<rect x="220" y="522" width="111.2" height="6" fill="#2563eb" rx="3"/>
<rect x="220" y="530" width="223.3" height="6" fill="#7c3aed" rx="3"/>
<text x="208" y="574" font-size="12" text-anchor="end" fill="#111827">http_methods_10</text>
<rect x="220" y="556" width="91.1" height="6" fill="#0f766e" rx="3"/>
<rect x="220" y="564" width="86.1" height="6" fill="#2563eb" rx="3"/>
<rect x="220" y="572" width="223.5" height="6" fill="#7c3aed" rx="3"/>
<text x="208" y="616" font-size="12" text-anchor="end" fill="#111827">json_fields_10</text>
<rect x="220" y="598" width="70.5" height="6" fill="#0f766e" rx="3"/>
<rect x="220" y="606" width="83.9" height="6" fill="#2563eb" rx="3"/>
<rect x="220" y="614" width="245.1" height="6" fill="#7c3aed" rx="3"/>
<text x="208" y="658" font-size="12" text-anchor="end" fill="#111827">prefix_family_10</text>
<rect x="220" y="640" width="108.2" height="6" fill="#0f766e" rx="3"/>
<rect x="220" y="648" width="77.0" height="6" fill="#2563eb" rx="3"/>
<rect x="220" y="656" width="341.9" height="6" fill="#7c3aed" rx="3"/>
<text x="208" y="700" font-size="12" text-anchor="end" fill="#111827">tail_distinct_10</text>
<rect x="220" y="682" width="154.5" height="6" fill="#0f766e" rx="3"/>
<rect x="220" y="690" width="85.7" height="6" fill="#2563eb" rx="3"/>
<rect x="220" y="698" width="76.6" height="6" fill="#7c3aed" rx="3"/>
<rect x="24" y="734" width="18" height="10" fill="#0f766e" rx="2"/>
<text x="50" y="743" font-size="12" fill="#374151">meta_match</text>
<rect x="194" y="734" width="18" height="10" fill="#2563eb" rx="2"/>
<text x="220" y="743" font-size="12" fill="#374151">if_match</text>
<rect x="364" y="734" width="18" height="10" fill="#7c3aed" rx="2"/>
<text x="390" y="743" font-size="12" fill="#374151">glaze</text>
<text x="24" y="740" font-size="16" font-weight="700" fill="#1f2937">miss_only</text>
<line x1="220.0" y1="760" x2="220.0" y2="1064" stroke="#e5e7eb" stroke-width="1"/>
<text x="220.0" y="754" font-size="11" text-anchor="middle" fill="#6b7280">0.00 ns</text>
<line x1="400.0" y1="760" x2="400.0" y2="1064" stroke="#e5e7eb" stroke-width="1"/>
<text x="400.0" y="754" font-size="11" text-anchor="middle" fill="#6b7280">8.09 ns</text>
<line x1="580.0" y1="760" x2="580.0" y2="1064" stroke="#e5e7eb" stroke-width="1"/>
<text x="580.0" y="754" font-size="11" text-anchor="middle" fill="#6b7280">16.18 ns</text>
<line x1="760.0" y1="760" x2="760.0" y2="1064" stroke="#e5e7eb" stroke-width="1"/>
<text x="760.0" y="754" font-size="11" text-anchor="middle" fill="#6b7280">24.26 ns</text>
<line x1="940.0" y1="760" x2="940.0" y2="1064" stroke="#e5e7eb" stroke-width="1"/>
<text x="940.0" y="754" font-size="11" text-anchor="middle" fill="#6b7280">32.35 ns</text>
<line x1="1120.0" y1="760" x2="1120.0" y2="1064" stroke="#e5e7eb" stroke-width="1"/>
<text x="1120.0" y="754" font-size="11" text-anchor="middle" fill="#6b7280">40.44 ns</text>
<text x="208" y="788" font-size="12" text-anchor="end" fill="#111827">first_byte_distinct_10</text>
<rect x="220" y="770" width="27.8" height="6" fill="#0f766e" rx="3"/>
<rect x="220" y="778" width="32.5" height="6" fill="#2563eb" rx="3"/>
<rect x="220" y="786" width="15.5" height="6" fill="#7c3aed" rx="3"/>
<text x="208" y="830" font-size="12" text-anchor="end" fill="#111827">hash_prefix_4byte_255</text>
<rect x="220" y="812" width="53.7" height="6" fill="#0f766e" rx="3"/>
<rect x="220" y="820" width="900.0" height="6" fill="#2563eb" rx="3"/>
<rect x="220" y="828" width="19.5" height="6" fill="#7c3aed" rx="3"/>
<text x="208" y="872" font-size="12" text-anchor="end" fill="#111827">http_headers_50</text>
<rect x="220" y="854" width="54.1" height="6" fill="#0f766e" rx="3"/>
<rect x="220" y="862" width="30.1" height="6" fill="#2563eb" rx="3"/>
<rect x="220" y="870" width="32.8" height="6" fill="#7c3aed" rx="3"/>
<text x="208" y="914" font-size="12" text-anchor="end" fill="#111827">http_methods_10</text>
<rect x="220" y="896" width="29.3" height="6" fill="#0f766e" rx="3"/>
<rect x="220" y="904" width="28.5" height="6" fill="#2563eb" rx="3"/>
<rect x="220" y="912" width="38.8" height="6" fill="#7c3aed" rx="3"/>
<text x="208" y="956" font-size="12" text-anchor="end" fill="#111827">json_fields_10</text>
<rect x="220" y="938" width="29.8" height="6" fill="#0f766e" rx="3"/>
<rect x="220" y="946" width="29.6" height="6" fill="#2563eb" rx="3"/>
<rect x="220" y="954" width="24.8" height="6" fill="#7c3aed" rx="3"/>
<text x="208" y="998" font-size="12" text-anchor="end" fill="#111827">prefix_family_10</text>
<rect x="220" y="980" width="39.1" height="6" fill="#0f766e" rx="3"/>
<rect x="220" y="988" width="17.2" height="6" fill="#2563eb" rx="3"/>
<rect x="220" y="996" width="47.3" height="6" fill="#7c3aed" rx="3"/>
<text x="208" y="1040" font-size="12" text-anchor="end" fill="#111827">tail_distinct_10</text>
<rect x="220" y="1022" width="59.9" height="6" fill="#0f766e" rx="3"/>
<rect x="220" y="1030" width="33.7" height="6" fill="#2563eb" rx="3"/>
<rect x="220" y="1038" width="50.0" height="6" fill="#7c3aed" rx="3"/>
<rect x="24" y="1074" width="18" height="10" fill="#0f766e" rx="2"/>
<text x="50" y="1083" font-size="12" fill="#374151">meta_match</text>
<rect x="194" y="1074" width="18" height="10" fill="#2563eb" rx="2"/>
<text x="220" y="1083" font-size="12" fill="#374151">if_match</text>
<rect x="364" y="1074" width="18" height="10" fill="#7c3aed" rx="2"/>
<text x="390" y="1083" font-size="12" fill="#374151">glaze</text>
</svg>
